<svg height="512pt" viewBox="0 -70 512.001 512" width="512pt" xmlns="http://www.w3.org/2000/svg"><g fill-rule="evenodd"><path d="m502 165.144531h-41.660156c-.351563 0-.699219.023438-1.042969.058594-.398437.039063-.785156.109375-1.167969.195313-.085937.023437-.175781.046874-.261718.070312-.3125.078125-.613282.171875-.914063.277344-.085937.03125-.171875.0625-.253906.09375-.398438.15625-.785157.332031-1.15625.535156l-33.691407 18.085938v-46.535157c0-19.546875-15.902343-35.449219-35.449218-35.449219h-118.109375l-61.132813-71.980468c-1.898437-2.238282-4.6875-3.527344-7.621094-3.527344h-137.878906v-16.96875c0-5.523438-4.476562-10-10-10h-41.660156c-5.523438 0-10 4.476562-10 10v124.046875c0 5.523437 4.476562 10 10 10h41.660156c5.523438 0 10-4.476563 10-10v-11.570313h47.367188c-2.269532 4.671876-3.546875 9.914063-3.546875 15.449219v198.738281c0 19.546876 15.902343 35.449219 35.449219 35.449219h82.734374c5.523438 0 10-4.476562 10-10 0-5.523437-4.476562-10-10-10h-82.734374c-8.519532 0-15.449219-6.929687-15.449219-15.449219v-198.738281c0-8.519531 6.929687-15.449219 15.449219-15.449219h245.472656c8.519531 0 15.449218 6.929688 15.449218 15.449219v198.734375c0 8.523438-6.929687 15.453125-15.449218 15.453125h-82.734375c-5.523438 0-10 4.476563-10 10 0 5.523438 4.476562 10 10 10h82.734375c19.550781 0 35.449218-15.90625 35.449218-35.453125v-46.535156l33.695313 18.089844c.019531.011718.042969.023437.0625.035156h.003906c.335938.179688.683594.335938 1.039063.476562.085937.035157.175781.066407.265625.097657.269531.101562.546875.1875.832031.265625.101562.027344.207031.054687.3125.078125.277344.066406.5625.117187.847656.15625.097656.015625.191406.035156.292969.046875.375.042968.753906.070312 1.140625.070312h41.65625c5.523438 0 10-4.476562 10-10v-124.296875c0-5.519531-4.476562-10-10-10zm-460.339844-41.097656h-21.660156v-104.046875h21.660156zm99.269532-21.570313h-79.269532v-55.507812h133.253906l47.140626 55.507812zm280.921874 104.683594 28.488282-15.292968v90.855468l-28.488282-15.296875zm70.148438 82.28125h-21.660156v-104.296875h21.660156zm0 0"/><path d="m373.625 226.4375v-26.199219c0-16.242187-13.214844-29.460937-29.460938-29.460937h-160.996093c-16.246094 0-29.460938 13.21875-29.460938 29.460937v26.199219c0 16.246094 13.214844 29.460938 29.460938 29.460938h160.996093c16.246094 0 29.460938-13.214844 29.460938-29.460938zm-199.917969 0v-26.199219c0-5.214843 4.242188-9.460937 9.460938-9.460937h160.996093c5.21875 0 9.460938 4.246094 9.460938 9.460937v26.199219c0 5.21875-4.242188 9.460938-9.460938 9.460938h-160.996093c-5.21875 0-9.460938-4.242188-9.460938-9.460938zm0 0"/><path d="m336.746094 282.097656h-24.765625c-5.523438 0-10 4.476563-10 10 0 5.523438 4.476562 10 10 10h24.765625c5.523437 0 10-4.476562 10-10 0-5.523437-4.476563-10-10-10zm0 0"/><path d="m276.050781 282.097656h-24.769531c-5.523438 0-10 4.476563-10 10 0 5.523438 4.476562 10 10 10h24.769531c5.519531 0 10-4.476562 10-10 0-5.523437-4.480469-10-10-10zm0 0"/><path d="m190.585938 282.097656c-5.523438 0-10 4.476563-10 10 0 5.523438 4.476562 10 10 10h24.765624c5.523438 0 10-4.476562 10-10 0-5.523437-4.476562-10-10-10zm0 0"/><path d="m263.664062 352.113281c-5.507812 0-10 4.492188-10 10 0 5.507813 4.492188 10 10 10 5.507813 0 10-4.492187 10-10 0-5.507812-4.492187-10-10-10zm0 0"/></g></svg>